<svg xmlns="http://www.w3.org/2000/svg" viewBox="0 0 1920 1080"><g transform="          rotate(0 960 540)           translate(-0 -0)          scale(1)        "><rect width="1920" height="1080" fill="rgb(128, 153, 106)"></rect><g transform="translate(0, 0)"><path fill="rgb(125, 156, 105)" fill-opacity="1" d="M0,117.648L32,116.692C64,115.736,128,113.824,192,113.527C256,113.231,320,114.55,384,114.698C448,114.847,512,113.824,576,101.061C640,88.298,704,63.794,768,61.725C832,59.656,896,80.02,960,73.779C1024,67.537,1088,34.69,1152,32.827C1216,30.964,1280,60.086,1344,67.34C1408,74.593,1472,59.979,1536,46.452C1600,32.925,1664,20.485,1728,26.906C1792,33.328,1856,58.61,1888,71.251L1920,83.892L1920,1080L1888,1080C1856,1080,1792,1080,1728,1080C1664,1080,1600,1080,1536,1080C1472,1080,1408,1080,1344,1080C1280,1080,1216,1080,1152,1080C1088,1080,1024,1080,960,1080C896,1080,832,1080,768,1080C704,1080,640,1080,576,1080C512,1080,448,1080,384,1080C320,1080,256,1080,192,1080C128,1080,64,1080,32,1080L0,1080Z"></path></g><g transform="translate(0, 120)"><path fill="rgb(122, 160, 104)" fill-opacity="1" d="M0,35.397L32,35.389C64,35.38,128,35.363,192,47.091C256,58.819,320,82.292,384,94.899C448,107.506,512,109.246,576,94.892C640,80.537,704,50.088,768,37.541C832,24.994,896,30.351,960,42.091C1024,53.831,1088,71.955,1152,84.777C1216,97.598,1280,105.117,1344,100.171C1408,95.226,1472,77.817,1536,60.104C1600,42.391,1664,24.374,1728,14.455C1792,4.535,1856,2.714,1888,1.803L1920,0.892L1920,960L1888,960C1856,960,1792,960,1728,960C1664,960,1600,960,1536,960C1472,960,1408,960,1344,960C1280,960,1216,960,1152,960C1088,960,1024,960,960,960C896,960,832,960,768,960C704,960,640,960,576,960C512,960,448,960,384,960C320,960,256,960,192,960C128,960,64,960,32,960L0,960Z"></path></g><g transform="translate(0, 240)"><path fill="rgb(120, 163, 104)" fill-opacity="1" d="M0,72.233L32,67.818C64,63.402,128,54.571,192,45.392C256,36.214,320,26.687,384,24.085C448,21.483,512,25.804,576,28.869C640,31.935,704,33.744,768,44.352C832,54.96,896,74.367,960,87.583C1024,100.8,1088,107.825,1152,112.039C1216,116.254,1280,117.656,1344,109.541C1408,101.426,1472,83.794,1536,69.765C1600,55.736,1664,45.311,1728,36.212C1792,27.113,1856,19.341,1888,15.454L1920,11.568L1920,840L1888,840C1856,840,1792,840,1728,840C1664,840,1600,840,1536,840C1472,840,1408,840,1344,840C1280,840,1216,840,1152,840C1088,840,1024,840,960,840C896,840,832,840,768,840C704,840,640,840,576,840C512,840,448,840,384,840C320,840,256,840,192,840C128,840,64,840,32,840L0,840Z"></path></g><g transform="translate(0, 360)"><path fill="rgb(117, 167, 103)" fill-opacity="1" d="M0,103.789L32,106.092C64,108.396,128,113.004,192,115.472C256,117.939,320,118.266,384,111.427C448,104.588,512,90.584,576,81.839C640,73.094,704,69.608,768,62.486C832,55.364,896,44.606,960,53.103C1024,61.601,1088,89.355,1152,100.929C1216,112.503,1280,107.897,1344,106.588C1408,105.278,1472,107.265,1536,104.96C1600,102.655,1664,96.057,1728,79.596C1792,63.136,1856,36.814,1888,23.653L1920,10.492L1920,720L1888,720C1856,720,1792,720,1728,720C1664,720,1600,720,1536,720C1472,720,1408,720,1344,720C1280,720,1216,720,1152,720C1088,720,1024,720,960,720C896,720,832,720,768,720C704,720,640,720,576,720C512,720,448,720,384,720C320,720,256,720,192,720C128,720,64,720,32,720L0,720Z"></path></g><g transform="translate(0, 480)"><path fill="rgb(114, 170, 102)" fill-opacity="1" d="M0,108.371L32,99.47C64,90.57,128,72.769,192,57.632C256,42.495,320,30.023,384,29.766C448,29.509,512,41.467,576,58.131C640,74.795,704,96.165,768,97.446C832,98.728,896,79.922,960,68.84C1024,57.758,1088,54.4,1152,45.477C1216,36.553,1280,22.064,1344,14.648C1408,7.232,1472,6.889,1536,13.413C1600,19.936,1664,33.327,1728,51.475C1792,69.623,1856,92.528,1888,103.981L1920,115.433L1920,600L1888,600C1856,600,1792,600,1728,600C1664,600,1600,600,1536,600C1472,600,1408,600,1344,600C1280,600,1216,600,1152,600C1088,600,1024,600,960,600C896,600,832,600,768,600C704,600,640,600,576,600C512,600,448,600,384,600C320,600,256,600,192,600C128,600,64,600,32,600L0,600Z"></path></g><g transform="translate(0, 600)"><path fill="rgb(111, 174, 101)" fill-opacity="1" d="M0,93.318L32,80.497C64,67.677,128,42.037,192,45.191C256,48.346,320,80.296,384,85.287C448,90.278,512,68.31,576,63.161C640,58.012,704,69.684,768,70.403C832,71.122,896,60.888,960,62.09C1024,63.292,1088,75.93,1152,82.077C1216,88.224,1280,87.881,1344,81.985C1408,76.089,1472,64.64,1536,61.336C1600,58.032,1664,62.874,1728,65.241C1792,67.607,1856,67.499,1888,67.445L1920,67.391L1920,480L1888,480C1856,480,1792,480,1728,480C1664,480,1600,480,1536,480C1472,480,1408,480,1344,480C1280,480,1216,480,1152,480C1088,480,1024,480,960,480C896,480,832,480,768,480C704,480,640,480,576,480C512,480,448,480,384,480C320,480,256,480,192,480C128,480,64,480,32,480L0,480Z"></path></g><g transform="translate(0, 720)"><path fill="rgb(109, 177, 101)" fill-opacity="1" d="M0,60.65L32,59.802C64,58.954,128,57.258,192,49.186C256,41.115,320,26.668,384,18.042C448,9.415,512,6.608,576,10.616C640,14.624,704,25.447,768,32.251C832,39.055,896,41.84,960,42.471C1024,43.103,1088,41.58,1152,45.137C1216,48.694,1280,57.331,1344,63.555C1408,69.778,1472,73.589,1536,79.554C1600,85.519,1664,93.639,1728,92.252C1792,90.865,1856,79.972,1888,74.526L1920,69.079L1920,360L1888,360C1856,360,1792,360,1728,360C1664,360,1600,360,1536,360C1472,360,1408,360,1344,360C1280,360,1216,360,1152,360C1088,360,1024,360,960,360C896,360,832,360,768,360C704,360,640,360,576,360C512,360,448,360,384,360C320,360,256,360,192,360C128,360,64,360,32,360L0,360Z"></path></g><g transform="translate(0, 840)"><path fill="rgb(106, 181, 100)" fill-opacity="1" d="M0,34.175L32,40.283C64,46.39,128,58.605,192,56.664C256,54.724,320,38.629,384,42.997C448,47.365,512,72.197,576,77.072C640,81.946,704,66.863,768,70.223C832,73.583,896,95.387,960,104.577C1024,113.766,1088,110.341,1152,100.726C1216,91.112,1280,75.308,1344,74.338C1408,73.368,1472,87.234,1536,86.095C1600,84.956,1664,68.812,1728,62.174C1792,55.536,1856,58.403,1888,59.837L1920,61.27L1920,240L1888,240C1856,240,1792,240,1728,240C1664,240,1600,240,1536,240C1472,240,1408,240,1344,240C1280,240,1216,240,1152,240C1088,240,1024,240,960,240C896,240,832,240,768,240C704,240,640,240,576,240C512,240,448,240,384,240C320,240,256,240,192,240C128,240,64,240,32,240L0,240Z"></path></g><g transform="translate(0, 960)"><path fill="rgb(103, 184, 99)" fill-opacity="1" d="M0,14.994L32,25.217C64,35.439,128,55.884,192,53.411C256,50.939,320,25.55,384,21.656C448,17.762,512,35.364,576,51.641C640,67.918,704,82.869,768,74.271C832,65.672,896,33.523,960,31.738C1024,29.952,1088,58.531,1152,63.048C1216,67.565,1280,48.019,1344,42.928C1408,37.836,1472,47.199,1536,49.981C1600,52.763,1664,48.963,1728,56.164C1792,63.364,1856,81.564,1888,90.664L1920,99.764L1920,120L1888,120C1856,120,1792,120,1728,120C1664,120,1600,120,1536,120C1472,120,1408,120,1344,120C1280,120,1216,120,1152,120C1088,120,1024,120,960,120C896,120,832,120,768,120C704,120,640,120,576,120C512,120,448,120,384,120C320,120,256,120,192,120C128,120,64,120,32,120L0,120Z"></path></g></g></svg>